<svg xmlns:dc="http://purl.org/dc/elements/1.1/" xmlns:cc="http://creativecommons.org/ns#" xmlns:rdf="http://www.w3.org/1999/02/22-rdf-syntax-ns#" xmlns:svg="http://www.w3.org/2000/svg" xmlns="http://www.w3.org/2000/svg" xmlns:sodipodi="http://sodipodi.sourceforge.net/DTD/sodipodi-0.dtd" xmlns:inkscape="http://www.inkscape.org/namespaces/inkscape" version="1.1" x="0px" y="0px" viewBox="0 0 100 125"><g transform="translate(0,-952.36218)"><path style="text-indent:0;text-transform:none;direction:ltr;block-progression:tb;baseline-shift:baseline;color:#000000;enable-background:accumulate;" d="m 7.96875,958.27191 a 2.000005,2.000005 0 0 0 -1.375,3.43751 l 40.59375,40.59378 -40.59375,40.5937 a 2.000005,2.000005 0 1 0 2.8125,2.8125 L 50,1005.1157 l 40.59375,40.5937 a 2.000005,2.000005 0 1 0 2.8125,-2.8125 L 52.8125,1002.3032 93.40625,961.70942 a 2.000005,2.000005 0 0 0 -1.4375,-3.43751 2.000005,2.000005 0 0 0 -1.375,0.625 L 50,999.49065 9.40625,958.89691 a 2.000005,2.000005 0 0 0 -1.4375,-0.625 z" fill="#$dark-grey" fill-opacity="1" fill-rule="evenodd" stroke="none" marker="none" visibility="visible" display="inline" overflow="visible"/></g></svg>