<svg xmlns="http://www.w3.org/2000/svg" viewBox="0 0 90.29 48.9" x="0px" y="0px"><title>home-icons-liny-export</title><path d="M87.79,5H2.5a2.5,2.5,0,0,1,0-5H87.79a2.5,2.5,0,0,1,0,5Z"/><path d="M87.79,22.06H2.5a2.5,2.5,0,0,1,0-5H87.79a2.5,2.5,0,0,1,0,5Z"/><path d="M87.79,39.12H2.5a2.5,2.5,0,0,1,0-5H87.79a2.5,2.5,0,0,1,0,5Z"/><text x="0" y="54.12" fill="#000000" font-size="5px" font-weight="bold" font-family="'Helvetica Neue', Helvetica, Arial-Unicode, Arial, Sans-serif">Created by Vicons Design</text><text x="0" y="59.12" fill="#000000" font-size="5px" font-weight="bold" font-family="'Helvetica Neue', Helvetica, Arial-Unicode, Arial, Sans-serif">from the Noun Project</text></svg>